<?xml version="1.0" encoding="UTF-8" standalone="no"?>
<!DOCTYPE svg PUBLIC "-//W3C//DTD SVG 1.1//EN" "http://www.w3.org/Graphics/SVG/1.1/DTD/svg11.dtd">
<svg width="100%" height="100%" viewBox="0 0 428 333" version="1.1" xmlns="http://www.w3.org/2000/svg" xmlns:xlink="http://www.w3.org/1999/xlink" xml:space="preserve" xmlns:serif="http://www.serif.com/" style="fill-rule:evenodd;clip-rule:evenodd;stroke-linejoin:round;stroke-miterlimit:2;">
    <rect x="-16.987" y="-14.926" width="455.129" height="360.347" style="fill:rgb(235,235,235);"/>
    <g transform="matrix(0.224381,0,0,0.224381,-61.0067,-107.167)">
        <path d="M401.409,1907.3L341.663,1907.3L341.663,1237.76L396.667,1237.76L396.667,1330.7L398.564,1330.7C412.473,1296.56 435.076,1270.16 466.371,1251.51C497.666,1232.86 533.229,1223.54 573.06,1223.54C610.362,1223.54 642.764,1230.49 670.266,1244.4C697.768,1258.31 720.687,1277.12 739.021,1300.83C757.356,1324.53 770.949,1352.04 779.8,1383.33C788.652,1414.63 793.077,1447.66 793.077,1482.43C793.077,1517.21 788.652,1550.24 779.8,1581.54C770.949,1612.83 757.356,1640.34 739.021,1664.04C720.687,1687.75 697.768,1706.4 670.266,1720C642.764,1733.59 610.362,1740.39 573.06,1740.39C555.358,1740.39 537.655,1738.17 519.953,1733.75C502.25,1729.32 485.812,1722.68 470.638,1713.83C455.465,1704.98 442.03,1693.92 430.334,1680.64C418.638,1667.36 409.628,1651.87 403.306,1634.17L401.409,1634.17L401.409,1907.3ZM942.065,1076.09L885.37,1076.09L885.37,564.882L886.336,557.545C887.28,555.266 887.935,552.844 889.168,550.708C890.401,548.572 891.929,546.582 893.673,544.837C897.192,541.319 901.574,538.788 906.381,537.501C908.763,536.862 911.272,536.857 913.718,536.535L2074.71,536.535C2077.15,536.857 2079.6,537.179 2082.04,537.501C2084.32,538.445 2086.74,539.099 2088.88,540.332C2093.19,542.82 2096.77,546.399 2099.26,550.708C2100.49,552.844 2101.45,555.162 2102.09,557.545C2102.72,559.928 2102.73,562.436 2103.05,564.882L2103.05,1725.87C2102.73,1728.32 2102.72,1730.82 2102.09,1733.21C2101.45,1735.59 2100.49,1737.91 2099.26,1740.04C2096.77,1744.35 2093.19,1747.93 2088.88,1750.42C2086.74,1751.65 2084.43,1752.61 2082.04,1753.25C2079.66,1753.89 2077.15,1753.89 2074.71,1754.22L1614.51,1754.22L1614.51,1697.52L2046.36,1697.52L2046.36,593.229L942.065,593.229L942.065,1076.09ZM1202.76,1498.56C1202.76,1520.05 1205.77,1542.34 1211.77,1565.41C1217.78,1588.49 1227.42,1609.2 1240.7,1627.53C1253.98,1645.87 1270.73,1661.04 1290.96,1673.05C1311.19,1685.07 1335.53,1691.07 1363.98,1691.07C1407.61,1691.07 1441.75,1679.69 1466.4,1656.93C1491.06,1634.17 1508.13,1603.82 1517.62,1565.89L1577.36,1565.89C1564.72,1621.53 1541.48,1664.52 1507.66,1694.87C1473.83,1725.21 1425.94,1740.39 1363.98,1740.39C1325.42,1740.39 1292.07,1733.59 1263.93,1720C1235.8,1706.4 1212.88,1687.75 1195.18,1664.04C1177.48,1640.34 1164.36,1612.83 1155.82,1581.54C1147.29,1550.24 1143.02,1517.21 1143.02,1482.43C1143.02,1450.19 1147.29,1418.58 1155.82,1387.6C1164.36,1356.62 1177.48,1328.96 1195.18,1304.62C1212.88,1280.28 1235.8,1260.68 1263.93,1245.82C1292.07,1230.96 1325.42,1223.54 1363.98,1223.54C1403.18,1223.54 1436.69,1231.44 1464.51,1247.24C1492.33,1263.05 1514.93,1283.76 1532.32,1309.36C1549.7,1334.97 1562.19,1364.37 1569.78,1397.56C1577.36,1430.75 1580.52,1464.41 1579.26,1498.56L1202.76,1498.56ZM945.761,1727.11L886.015,1727.11L886.015,1237.76L941.02,1237.76L941.02,1352.51L942.916,1352.51C958.09,1312.68 981.641,1282.02 1013.57,1260.52C1045.5,1239.03 1083.59,1229.23 1127.85,1231.12L1127.85,1290.87C1100.66,1289.6 1076,1293.24 1053.87,1301.77C1031.75,1310.31 1012.62,1322.48 996.498,1338.29C980.376,1354.09 967.89,1372.9 959.038,1394.71C950.187,1416.52 945.761,1440.39 945.761,1466.31L945.761,1727.11ZM733.331,1482.43C733.331,1507.72 730.328,1532.86 724.322,1557.83C718.316,1582.8 708.832,1605.09 695.871,1624.69C682.911,1644.29 666.314,1660.25 646.083,1672.58C625.852,1684.91 601.511,1691.07 573.06,1691.07C541.448,1691.07 514.737,1684.91 492.925,1672.58C471.113,1660.25 453.41,1644.29 439.817,1624.69C426.224,1605.09 416.424,1582.8 410.418,1557.83C404.412,1532.86 401.409,1507.72 401.409,1482.43C401.409,1454.62 404.096,1428.06 409.47,1402.77C414.844,1377.48 424.169,1355.36 437.446,1336.39C450.723,1317.42 468.426,1302.25 490.554,1290.87C512.682,1279.49 540.184,1273.8 573.06,1273.8C601.511,1273.8 625.852,1279.96 646.083,1292.29C666.314,1304.62 682.911,1320.58 695.871,1340.18C708.832,1359.78 718.316,1382.07 724.322,1407.04C730.328,1432.01 733.331,1457.14 733.331,1482.43ZM1519.51,1448.29C1518.88,1425.53 1514.93,1403.72 1507.66,1382.86C1500.39,1361.99 1490.11,1343.5 1476.84,1327.38C1463.56,1311.26 1447.44,1298.3 1428.47,1288.5C1409.5,1278.7 1388.01,1273.8 1363.98,1273.8C1339.33,1273.8 1317.51,1278.7 1298.55,1288.5C1279.58,1298.3 1263.46,1311.26 1250.18,1327.38C1236.9,1343.5 1226.32,1362.15 1218.41,1383.33C1210.51,1404.51 1205.29,1426.17 1202.76,1448.29L1519.51,1448.29ZM1799.19,1160.81L1799.19,1131.07L1599.74,1131.07C1601.79,1119.11 1606.92,1108.08 1615.12,1098C1623.32,1087.91 1632.81,1078.6 1643.58,1070.05C1654.34,1061.51 1665.54,1053.73 1677.16,1046.72C1688.78,1039.72 1698.87,1033.31 1707.41,1027.5C1719.38,1019.98 1730.74,1011.86 1741.51,1003.14C1752.28,994.426 1761.85,984.941 1770.22,974.686C1778.6,964.431 1785.26,953.151 1790.22,940.846C1795.17,928.54 1797.65,914.867 1797.65,899.827C1797.65,883.078 1794.83,868.379 1789.19,855.732C1783.55,843.085 1775.69,832.574 1765.61,824.199C1755.52,815.824 1743.73,809.501 1730.23,805.228C1716.73,800.955 1702.11,798.819 1686.39,798.819C1666.91,798.819 1649.9,801.981 1635.37,808.304C1620.85,814.628 1608.8,823.43 1599.23,834.71C1589.65,845.99 1582.56,859.407 1577.95,874.96C1573.33,890.512 1571.2,907.518 1571.54,925.976L1603.84,925.976C1603.5,912.645 1604.78,899.998 1607.68,888.034C1610.59,876.07 1615.29,865.474 1621.79,856.245C1628.28,847.016 1636.74,839.666 1647.16,834.197C1657.59,828.728 1670.15,825.994 1684.85,825.994C1695.79,825.994 1706.13,827.617 1715.87,830.865C1725.61,834.112 1734.16,838.897 1741.51,845.221C1748.86,851.545 1754.67,859.236 1758.94,868.294C1763.21,877.352 1765.35,887.692 1765.35,899.314C1765.35,913.671 1762.87,926.062 1757.92,936.487C1752.96,946.913 1745.53,957.082 1735.61,966.995C1725.7,976.908 1714.5,986.222 1702.03,994.939C1689.55,1003.65 1676.99,1012.2 1664.34,1020.58C1651.69,1028.95 1639.39,1037.67 1627.42,1046.72C1615.46,1055.78 1604.69,1065.78 1595.12,1076.72C1585.55,1087.66 1577.86,1099.96 1572.05,1113.64C1566.24,1127.31 1563.16,1143.03 1562.82,1160.81L1799.19,1160.81Z"/>
    </g>
</svg>
